<svg width="19" height="17" viewBox="0 0 19 17" fill="none" xmlns="http://www.w3.org/2000/svg">
<mask id="mask0_1036366_782" style="mask-type:luminance" maskUnits="userSpaceOnUse" x="0" y="0" width="19" height="17">
<path d="M0 0H19V17H0V0Z" fill="white"/>
</mask>
<g mask="url(#mask0_1036366_782)">
<path fill-rule="evenodd" clip-rule="evenodd" d="M18.8135 15.8158L12.873 10.5006C14.0273 9.20786 14.5845 7.56853 14.4302 5.91968C14.2762 4.27077 13.422 2.73733 12.0436 1.634C10.6652 0.530913 8.86707 -0.0581361 7.01839 -0.0121445C5.16972 0.0339887 3.41095 0.711607 2.10331 1.88167C0.795584 3.05174 0.0382395 4.62537 -0.0133137 6.27938C-0.0647273 7.93346 0.593633 9.54229 1.8265 10.7756C3.05951 12.009 4.7734 12.7732 6.61638 12.911C8.45928 13.049 10.2914 12.5505 11.7362 11.5177L17.6767 16.8329C17.7961 16.9428 17.9599 17.0049 18.1312 17.0049C18.3024 17.0049 18.4664 16.9428 18.5855 16.8329L18.8136 16.6288C18.9364 16.5222 19.0058 16.3755 19.0058 16.2223C19.0058 16.069 18.9364 15.9225 18.8136 15.8157L18.8135 15.8158ZM6.65039 11.4724C5.23308 11.3414 3.92419 10.734 2.98801 9.77289C2.05198 8.81189 1.55847 7.56866 1.60739 6.29433C1.65615 5.02027 2.24379 3.81015 3.25128 2.90857C4.25877 2.00713 5.61126 1.48135 7.03536 1.43772C8.45947 1.39396 9.84892 1.83551 10.9232 2.67301C11.9974 3.51065 12.6762 4.68176 12.8226 5.94988C12.9892 7.45526 12.3928 8.94824 11.1973 10.0179C10.0018 11.0876 8.33321 11.6213 6.65066 11.4722L6.65039 11.4724Z" fill="#7C5D40"/>
</g>
</svg>
